<?xml version="1.0" standalone="no"?>
<!DOCTYPE svg PUBLIC "-//W3C//DTD SVG 20010904//EN"
 "http://www.w3.org/TR/2001/REC-SVG-20010904/DTD/svg10.dtd">
<svg version="1.0" xmlns="http://www.w3.org/2000/svg"
 width="300.000000pt" height="300.000000pt" viewBox="0 0 300.000000 300.000000"
 preserveAspectRatio="xMidYMid meet">
<metadata>
Created by potrace 1.10, written by Peter Selinger 2001-2011
</metadata>
<g transform="translate(0.000000,300.000000) scale(0.100000,-0.100000)"
fill="#000000" stroke="none">
<path d="M1185 2367 c-12 -29 4 -97 38 -161 21 -40 64 -90 131 -155 331 -318
376 -374 394 -492 l8 -54 21 45 c32 67 38 127 19 201 -38 146 -145 260 -357
379 -181 102 -219 138 -239 225 -6 25 -8 27 -15 12z m239 -267 c181 -101 255
-169 316 -289 20 -40 41 -161 27 -161 -3 0 -17 20 -31 45 -46 77 -120 159
-264 289 -128 115 -185 176 -165 176 5 0 57 -27 117 -60z"/>
<path d="M1803 2154 c-22 -22 -25 -32 -21 -79 10 -124 144 -196 184 -99 27 63
-16 163 -82 190 -45 19 -51 18 -81 -12z m98 -45 c49 -52 48 -139 -2 -139 -56
0 -110 110 -74 150 25 28 42 25 76 -11z"/>
<path d="M1700 1981 c90 -91 135 -181 135 -268 0 -35 1 -63 3 -63 12 0 42 94
42 133 0 62 -27 114 -86 166 -41 36 -142 101 -156 101 -3 0 25 -31 62 -69z"/>
<path d="M1614 1687 c0 -34 -6 -46 -89 -161 -29 -40 -35 -57 -35 -100 0 -31 6
-61 16 -74 23 -34 98 -67 240 -108 71 -20 152 -47 181 -61 61 -28 113 -83 113
-119 0 -40 18 -18 26 32 9 60 -10 124 -51 171 -19 22 -75 62 -130 93 -117 66
-160 105 -176 162 -28 104 -41 136 -67 167 l-28 34 0 -36z m51 -124 c19 -105
67 -159 205 -233 83 -45 150 -108 150 -142 0 -16 -6 -15 -52 11 -29 16 -123
51 -208 76 -179 54 -226 79 -235 127 -8 43 5 76 62 153 52 70 66 71 78 8z"/>
<path d="M1455 1287 c-11 -23 -77 -100 -148 -174 -183 -190 -216 -268 -223
-528 -4 -157 0 -163 31 -40 36 150 148 330 251 406 167 121 214 158 261 204
29 28 53 56 53 62 0 6 -20 16 -44 23 -52 14 -146 66 -146 80 0 22 -16 7 -35
-33z m155 -92 c0 -14 -142 -133 -231 -193 -65 -44 -163 -152 -206 -228 -30
-53 -39 -61 -41 -44 -5 31 15 104 45 169 18 39 61 92 138 171 61 63 126 134
144 157 l32 43 60 -30 c32 -17 59 -37 59 -45z"/>
<path d="M1859 1102 c-25 -26 -75 -73 -112 -105 -80 -70 -107 -130 -107 -235
l1 -67 19 37 c49 92 203 222 313 263 50 19 50 18 27 81 -10 24 -66 74 -83 73
-7 0 -33 -22 -58 -47z m93 -19 c27 -24 22 -49 -13 -63 -48 -20 -139 -82 -196
-134 -37 -33 -53 -43 -53 -31 0 41 49 101 133 165 34 26 68 54 76 63 17 21 30
21 53 0z"/>
</g>
</svg>
