 <svg  version="1.0" xmlns="http://www.w3.org/2000/svg"  width="900.000000pt" height="900.000000pt" viewBox="0 0 900.000000 900.000000"  preserveAspectRatio="xMidYMid meet">  <g transform="translate(0.000000,900.000000) scale(0.100000,-0.100000)" fill="#eec4ce" stroke="none"> <path d="M945 5360 c-26 -118 70 -253 360 -507 114 -99 199 -187 263 -268 37 -47 71 -134 74 -189 2 -27 8 -51 14 -53 15 -5 41 57 49 118 6 54 -8 175 -24 207 -5 9 -19 37 -31 61 -26 53 -101 153 -150 199 -53 50 -215 155 -295 191 -11 5 -37 21 -58 35 -21 14 -41 26 -45 26 -14 0 -80 75 -101 115 -12 22 -21 52 -21 67 0 38 -27 36 -35 -2z"/> <path d="M1724 5135 c-12 -8 -29 -30 -38 -49 -16 -33 -15 -38 3 -92 32 -91 86 -143 147 -144 61 0 79 25 78 109 0 60 -4 72 -35 114 -19 25 -39 46 -45 47 -6 0 -17 7 -24 15 -16 19 -59 19 -86 0z"/> <path d="M1540 4962 c0 -4 23 -30 51 -57 99 -97 164 -223 171 -330 4 -55 20 -47 40 22 17 55 17 61 0 118 -15 53 -27 69 -101 142 -46 46 -90 83 -96 83 -7 0 -18 7 -25 15 -13 16 -40 21 -40 7z"/> <path d="M2313 4933 c-47 -5 -47 -5 -57 -98 -3 -27 -8 -72 -12 -99 -6 -44 -5 -48 12 -44 13 2 21 15 26 43 10 60 25 116 35 126 4 4 31 16 58 27 42 15 81 19 238 21 103 1 187 -1 187 -3 0 -6 -39 -77 -95 -171 -22 -38 -44 -77 -48 -85 -4 -8 -16 -28 -27 -45 -11 -16 -23 -37 -27 -45 -4 -8 -26 -46 -48 -85 -23 -38 -44 -77 -48 -85 -4 -8 -16 -28 -27 -45 -11 -16 -24 -39 -30 -50 -5 -11 -14 -27 -20 -35 -13 -20 -94 -161 -103 -180 -9 -18 -22 -40 -60 -97 -15 -24 -27 -47 -27 -52 0 -9 462 -19 592 -13 l66 4 4 71 c5 126 -2 227 -18 227 -11 0 -14 -18 -14 -75 0 -99 -24 -149 -83 -176 -37 -16 -67 -19 -244 -19 -184 0 -234 6 -203 25 6 4 16 17 21 28 5 12 18 36 29 52 11 17 24 39 30 50 6 11 19 34 30 50 11 17 26 44 34 60 8 17 29 53 45 80 17 28 35 59 41 70 5 11 14 27 20 35 15 22 125 212 133 230 4 8 16 29 27 45 11 17 24 40 30 52 5 13 30 54 55 92 63 96 62 107 -22 114 -70 7 -425 6 -500 0z"/> <path d="M3405 4900 c-4 -22 -11 -42 -16 -46 -19 -12 -8 -51 21 -72 17 -13 30 -32 30 -43 0 -11 5 -30 12 -42 6 -12 15 -35 19 -52 10 -40 29 -95 42 -120 6 -11 14 -33 18 -50 4 -16 17 -55 30 -85 12 -30 22 -68 23 -85 1 -25 -3 -29 -19 -27 -11 2 -90 4 -175 5 -141 2 -155 4 -158 20 -2 10 4 27 13 37 9 9 19 34 22 54 3 20 10 39 14 42 5 3 9 13 9 22 0 9 7 30 15 45 8 15 17 43 21 63 3 19 10 37 15 40 5 3 9 18 9 33 0 15 7 36 15 47 20 26 20 94 0 94 -10 0 -15 -10 -15 -29 0 -16 -7 -36 -15 -45 -8 -8 -15 -23 -15 -33 0 -10 -6 -30 -14 -45 -8 -15 -17 -41 -21 -58 -4 -17 -13 -43 -21 -58 -8 -15 -14 -35 -14 -44 0 -9 -4 -19 -9 -22 -5 -4 -12 -24 -16 -46 -4 -22 -11 -42 -16 -46 -5 -3 -9 -15 -9 -27 0 -12 -7 -35 -15 -51 -8 -15 -15 -36 -15 -45 0 -9 -6 -26 -14 -37 -8 -11 -17 -37 -21 -57 -4 -20 -11 -37 -15 -37 -4 0 -11 -16 -15 -36 -3 -20 -10 -44 -15 -53 -12 -22 -50 -109 -50 -115 0 -2 -17 -33 -37 -67 -46 -78 -165 -199 -195 -199 -8 0 -24 -7 -37 -16 -12 -9 -51 -21 -84 -26 -175 -28 -316 3 -409 89 -28 27 -61 25 -72 -3 -4 -10 13 -27 57 -54 34 -22 70 -40 79 -40 9 0 18 -5 20 -11 13 -39 392 -41 417 -1 3 5 17 13 31 17 43 13 126 82 174 144 25 33 46 64 46 69 0 6 3 12 8 14 9 4 68 123 78 158 3 14 13 34 20 45 8 11 14 32 14 47 0 16 4 28 10 28 5 0 13 18 16 40 4 22 11 43 15 46 5 3 9 19 9 35 0 16 6 31 13 34 6 2 99 5 205 7 l192 3 9 -30 c5 -16 19 -55 31 -85 46 -118 50 -140 33 -166 -12 -19 -24 -24 -54 -24 -28 0 -39 -4 -39 -15 0 -16 1 -16 150 -16 149 0 150 0 150 16 0 11 -11 15 -38 15 -40 0 -82 31 -82 61 0 8 -5 20 -11 26 -6 6 -14 26 -19 44 -10 43 -30 98 -43 124 -6 11 -14 33 -18 50 -4 16 -17 55 -29 85 -12 30 -24 64 -27 75 -2 11 -9 29 -14 40 -14 33 -40 108 -46 135 -3 14 -10 30 -15 37 -6 7 -14 27 -18 45 -11 45 -30 98 -46 130 -8 14 -14 35 -14 47 0 29 -31 91 -46 91 -7 0 -15 -18 -19 -40z"/> <path d="M3974 4931 c-9 -9 9 -21 31 -21 13 0 39 -14 57 -30 l33 -30 3 -408 c1 -224 0 -416 -2 -427 -9 -37 -44 -65 -81 -65 -24 0 -35 -5 -35 -15 0 -13 23 -15 150 -15 127 0 150 2 150 15 0 11 -11 15 -38 15 -27 0 -45 7 -60 23 -21 22 -22 31 -22 240 0 119 3 217 8 219 4 2 35 2 69 0 l62 -4 33 -51 c18 -29 41 -68 51 -87 11 -19 32 -54 48 -78 16 -24 29 -45 29 -47 0 -2 41 -72 90 -154 50 -82 90 -153 90 -156 0 -12 93 -130 129 -163 43 -40 151 -112 167 -112 7 0 25 -7 40 -15 16 -8 48 -15 71 -15 23 0 45 -4 48 -10 3 -5 44 -10 90 -10 46 0 87 5 90 10 3 6 27 10 52 10 24 0 57 6 71 14 15 7 45 22 67 33 107 52 126 74 80 95 -21 9 -29 7 -61 -21 -20 -18 -48 -38 -63 -44 -14 -6 -28 -14 -31 -18 -8 -10 -140 -31 -200 -32 -84 -1 -184 21 -248 55 -75 40 -212 180 -212 218 0 5 -4 10 -8 10 -5 0 -16 15 -25 33 -9 17 -30 55 -47 82 -16 28 -33 57 -37 65 -4 8 -19 33 -33 55 -43 68 -50 79 -60 100 -6 11 -19 34 -30 50 -11 17 -24 39 -30 50 -6 11 -19 34 -30 50 -54 81 -52 99 12 108 71 10 144 57 179 116 17 28 21 52 21 117 0 70 -4 87 -25 121 -32 51 -117 104 -177 111 -25 2 -50 9 -56 13 -10 8 -401 8 -410 0z m378 -38 c7 -6 32 -13 56 -17 135 -20 208 -150 152 -269 -11 -23 -25 -49 -32 -57 -17 -21 -82 -60 -98 -60 -8 0 -21 -6 -29 -14 -11 -10 -48 -15 -126 -17 l-110 -3 -3 228 -2 229 90 -5 c49 -3 96 -10 102 -15z"/> <path d="M4730 4926 c0 -11 9 -16 28 -16 45 0 122 -100 122 -158 0 -10 5 -23 11 -29 6 -6 14 -26 19 -44 10 -43 30 -98 43 -124 6 -11 14 -33 18 -50 4 -16 17 -55 29 -85 12 -30 24 -64 27 -75 2 -11 9 -29 14 -40 11 -26 39 -105 45 -130 3 -11 10 -29 15 -40 12 -29 39 -105 49 -140 30 -111 45 -112 79 -4 16 50 14 58 -14 69 -15 6 -27 20 -30 37 -4 15 -13 43 -21 61 -8 18 -14 41 -14 50 0 10 -5 23 -11 29 -6 6 -14 26 -19 44 -5 19 -18 59 -30 89 -12 30 -24 64 -27 75 -2 11 -9 29 -14 40 -14 33 -40 108 -46 135 -3 14 -12 34 -19 45 -8 11 -14 28 -14 38 0 10 -6 31 -14 45 -7 15 -19 44 -26 65 -11 37 -10 40 16 68 18 19 38 29 56 29 19 0 28 5 28 16 0 15 -8 16 -57 9 -75 -10 -104 -10 -180 0 -55 7 -63 6 -63 -9z"/> <path d="M5383 4927 c2 -7 14 -14 28 -15 42 -6 69 -40 69 -88 0 -23 -6 -49 -14 -56 -7 -8 -17 -29 -21 -47 -4 -18 -13 -44 -21 -59 -8 -15 -14 -34 -14 -43 0 -9 -7 -30 -15 -45 -8 -16 -15 -36 -15 -44 0 -8 -7 -24 -15 -34 -8 -11 -15 -30 -15 -42 0 -12 -7 -35 -15 -50 -8 -16 -15 -37 -15 -46 0 -9 -4 -19 -9 -22 -5 -4 -12 -24 -16 -46 -4 -22 -11 -42 -16 -46 -5 -3 -9 -18 -9 -33 0 -15 -7 -36 -15 -47 -18 -24 -20 -97 -2 -92 6 3 13 18 15 36 2 17 10 36 18 42 8 7 14 20 14 29 1 9 9 34 20 56 11 22 19 50 20 63 0 12 4 22 10 22 5 0 12 16 16 37 4 20 13 48 20 62 8 14 14 36 14 49 0 12 4 22 9 22 5 0 12 18 16 40 4 22 10 42 15 45 4 3 11 20 14 39 4 20 13 48 21 63 8 15 15 38 15 50 0 12 5 25 10 28 6 3 10 20 10 37 0 40 60 115 95 120 14 2 27 8 28 13 1 6 -47 11 -126 12 -93 1 -127 -2 -124 -10z"/> <path d="M5720 4924 c0 -8 10 -14 26 -14 14 0 41 -12 60 -26 l34 -26 0 -432 0 -433 -23 -21 c-15 -14 -36 -22 -60 -22 -26 0 -37 -4 -37 -15 0 -13 29 -15 198 -16 354 -2 471 -1 482 6 6 4 10 63 10 151 0 121 -2 144 -15 144 -12 0 -15 -15 -15 -71 0 -93 -26 -151 -78 -176 -31 -15 -64 -18 -217 -18 l-180 0 -3 229 c-1 144 1 233 8 240 12 12 218 8 242 -5 10 -5 18 -15 18 -22 1 -11 34 -57 42 -57 1 0 3 52 3 115 0 63 -3 115 -7 115 -5 0 -8 -4 -8 -10 0 -13 -49 -83 -63 -92 -17 -9 -211 -13 -225 -4 -9 5 -12 61 -12 204 0 108 3 207 6 219 6 23 7 23 178 20 148 -3 176 -6 210 -24 45 -23 86 -97 86 -155 0 -39 16 -60 26 -33 10 26 -7 202 -21 222 -12 17 -36 18 -339 19 -271 1 -326 -1 -326 -12z"/> <path d="M6498 4935 c-12 -12 2 -25 27 -25 14 0 35 -14 54 -35 l31 -36 0 -410 c0 -340 -2 -415 -15 -438 -15 -31 -33 -41 -71 -41 -14 0 -24 -6 -24 -14 0 -12 44 -15 258 -18 141 -1 289 -2 328 0 l72 4 3 71 c6 103 -4 242 -16 240 -5 -2 -12 -40 -15 -86 -6 -99 -27 -146 -78 -173 -31 -17 -57 -19 -206 -19 l-171 0 0 453 0 454 29 21 c17 12 43 24 58 27 16 3 29 10 28 15 0 10 -47 12 -125 5 -22 -2 -67 0 -100 4 -33 4 -63 5 -67 1z"/> <path d="M7670 4923 c0 -10 -8 -40 -17 -66 -17 -47 -17 -49 1 -63 10 -7 23 -15 28 -16 5 -2 13 -19 18 -38 8 -35 26 -87 41 -125 17 -40 41 -111 46 -135 3 -14 12 -34 19 -45 8 -11 14 -28 14 -38 0 -10 7 -29 16 -42 8 -13 14 -36 12 -52 -3 -28 -4 -28 -58 -23 -30 3 -108 4 -172 3 -133 -2 -141 3 -108 65 11 20 20 44 20 54 0 9 4 19 9 22 5 3 12 21 15 40 4 20 13 48 21 63 8 15 15 36 15 45 0 9 5 20 10 23 6 3 10 18 10 33 0 15 7 40 15 56 19 35 20 99 3 94 -7 -3 -15 -18 -16 -34 -2 -16 -10 -36 -18 -45 -8 -9 -18 -33 -21 -53 -3 -20 -9 -36 -13 -36 -4 0 -11 -16 -14 -35 -4 -19 -13 -47 -21 -62 -8 -15 -15 -38 -15 -50 0 -12 -4 -25 -10 -28 -5 -3 -10 -14 -10 -23 0 -9 -7 -30 -15 -46 -8 -15 -15 -38 -15 -50 0 -12 -6 -30 -14 -41 -7 -11 -16 -37 -20 -57 -4 -21 -11 -38 -15 -38 -5 0 -12 -16 -15 -35 -4 -19 -13 -47 -21 -62 -8 -15 -15 -38 -15 -50 0 -13 -4 -23 -9 -23 -5 0 -12 -14 -16 -30 -4 -17 -18 -51 -32 -78 -14 -26 -34 -64 -45 -85 -11 -20 -48 -65 -83 -100 -76 -76 -90 -87 -109 -87 -8 0 -21 -7 -30 -15 -8 -8 -45 -20 -83 -27 -174 -29 -321 2 -415 89 -30 28 -68 24 -68 -7 0 -19 104 -90 133 -90 8 0 17 -5 19 -11 2 -6 26 -13 53 -16 28 -2 59 -9 71 -15 38 -18 284 9 292 32 2 6 10 10 19 10 57 0 207 145 250 243 9 20 20 37 25 37 4 0 8 5 8 11 0 9 15 45 56 136 8 17 14 38 14 46 0 8 7 28 15 43 8 16 15 37 15 46 0 9 5 20 10 23 6 3 10 21 10 40 0 19 3 36 8 38 4 3 96 7 206 8 l198 4 15 -40 c8 -22 18 -54 22 -70 4 -17 13 -39 18 -50 6 -11 17 -39 24 -62 11 -38 10 -45 -6 -63 -12 -13 -31 -20 -57 -20 -26 0 -38 -4 -38 -14 0 -12 23 -15 113 -18 148 -4 187 0 187 18 0 10 -12 14 -38 14 -52 0 -88 46 -109 140 -3 14 -9 30 -13 35 -4 6 -13 26 -18 45 -6 19 -20 60 -32 90 -12 30 -25 69 -30 85 -13 47 -31 97 -46 127 -8 14 -14 33 -14 42 0 9 -4 24 -10 34 -12 21 -40 98 -47 132 -3 14 -10 30 -15 37 -6 7 -14 27 -18 45 -9 37 -26 85 -48 141 -15 38 -42 51 -42 20z"/> <path d="M1480 4534 c0 -33 -12 -55 -78 -142 -80 -106 -99 -170 -67 -232 17 -32 74 -80 97 -80 8 0 23 -7 34 -15 10 -8 26 -15 34 -15 8 0 33 -9 55 -20 22 -11 49 -20 60 -20 11 0 31 -7 45 -15 14 -8 37 -14 51 -15 15 0 40 -7 55 -15 16 -8 36 -15 46 -15 56 0 188 -108 188 -154 0 -12 4 -28 10 -36 16 -25 25 17 23 103 -1 56 -6 84 -17 96 -9 10 -16 22 -16 28 0 5 -23 31 -51 58 -47 44 -77 63 -199 126 -52 27 -60 32 -106 79 -41 41 -60 79 -68 138 -4 24 -10 51 -15 60 -5 9 -18 38 -30 65 -23 52 -51 64 -51 21z m40 -216 c0 -14 83 -138 92 -138 5 0 16 -15 25 -34 8 -19 27 -39 41 -46 38 -17 14 -32 -28 -19 -19 6 -51 13 -70 14 -45 4 -103 26 -129 49 -22 20 -37 91 -26 125 3 11 19 34 36 52 24 26 32 29 44 19 8 -7 15 -17 15 -22z"/> <path d="M1304 4082 c-5 -4 -20 -26 -32 -49 -26 -52 -51 -80 -171 -197 -99 -96 -166 -178 -193 -236 -35 -74 -48 -109 -48 -126 0 -10 -6 -36 -14 -59 -12 -35 -20 -96 -40 -315 -3 -30 -1 -62 4 -70 9 -13 13 -12 30 9 11 13 20 38 20 56 0 34 22 117 45 170 33 75 81 168 92 177 7 6 13 17 13 25 0 17 193 213 210 213 13 0 60 33 191 137 80 63 152 140 144 153 -3 6 -16 10 -28 10 -52 0 -144 44 -182 87 -23 25 -25 26 -41 15z m66 -148 c0 -32 -54 -100 -86 -108 -13 -4 -28 -15 -34 -26 -6 -11 -17 -20 -25 -20 -25 0 -17 43 15 78 16 18 30 36 32 40 6 13 73 62 86 62 6 0 12 -12 12 -26z"/> <path d="M1830 3871 c0 -19 -62 -82 -114 -115 -28 -19 -69 -52 -91 -76 -22 -23 -48 -49 -57 -58 -10 -9 -18 -24 -18 -32 0 -9 -5 -21 -11 -27 -10 -10 -49 -179 -49 -215 0 -40 41 -10 73 53 29 57 103 135 181 192 70 51 98 66 184 102 49 21 53 38 20 94 -28 49 -118 112 -118 82z"/> <path d="M2839 3302 c-33 -19 -46 -89 -26 -131 11 -23 19 -26 65 -29 57 -3 82 8 82 39 0 23 -13 24 -30 3 -9 -10 -26 -14 -49 -12 -34 3 -36 5 -39 41 -2 26 2 45 14 58 22 24 32 24 60 -2 23 -22 44 -19 44 6 0 7 -9 17 -20 20 -11 3 -20 11 -20 16 0 14 -52 9 -81 -9z"/> <path d="M3052 3292 c-27 -23 -32 -34 -32 -69 0 -60 25 -83 89 -83 46 0 51 3 70 36 29 48 27 65 -14 107 -43 44 -69 46 -113 9z m83 -21 c3 -11 12 -22 20 -25 20 -7 18 -26 -5 -54 -15 -18 -27 -23 -57 -20 -35 3 -38 6 -41 37 -6 57 67 111 83 62z"/> <path d="M3463 3301 c-26 -21 -32 -71 -9 -71 8 0 16 -7 20 -15 3 -8 17 -15 32 -15 16 0 24 -5 21 -12 -2 -8 -21 -13 -43 -13 -28 0 -39 -4 -39 -15 0 -19 80 -27 101 -9 31 26 4 74 -46 81 -17 2 -26 10 -28 26 -4 30 23 39 49 16 14 -13 22 -15 31 -6 8 8 5 16 -13 31 -30 25 -48 26 -76 2z"/> <path d="M3946 3312 c-3 -5 4 -16 15 -25 15 -13 19 -30 19 -82 0 -51 3 -65 15 -65 12 0 15 14 15 69 0 49 4 72 15 81 8 7 15 16 15 21 0 11 -87 12 -94 1z"/> <path d="M4132 3292 c-28 -23 -32 -33 -32 -73 0 -61 20 -79 87 -79 50 0 51 1 71 41 20 39 20 43 4 75 -9 18 -25 36 -34 40 -10 3 -18 10 -18 15 0 19 -46 8 -78 -19z m78 -16 c0 -7 7 -19 15 -26 37 -31 -1 -84 -57 -78 -29 3 -33 7 -36 37 -3 24 3 40 19 57 25 26 59 32 59 10z"/> <path d="M4336 3298 c-30 -43 -15 -65 19 -28 27 30 45 25 45 -11 0 -30 -1 -31 -35 -25 -27 5 -35 4 -35 -7 0 -8 -3 -29 -6 -46 -5 -25 -3 -31 10 -31 13 0 16 5 11 21 -6 18 -3 20 22 17 20 -2 29 -9 31 -25 2 -13 9 -23 15 -23 9 0 13 24 14 75 1 67 -1 76 -23 90 -32 21 -50 19 -68 -7z"/> <path d="M4616 3287 c-28 -26 -36 -41 -36 -68 1 -55 28 -79 92 -79 46 1 56 4 72 27 30 41 25 80 -17 119 -45 43 -65 43 -111 1z m92 -22 c49 -51 4 -113 -65 -89 -37 13 -42 53 -11 87 30 32 47 32 76 2z"/> <path d="M4926 3292 c-10 -20 -13 -46 -9 -90 l6 -62 56 0 c32 0 62 5 69 12 7 7 12 38 12 73 0 59 -1 60 -36 78 -52 25 -81 22 -98 -11z m88 -21 c12 -13 16 -32 14 -57 -3 -42 -18 -51 -65 -39 -24 6 -25 9 -20 52 7 62 37 81 71 44z"/> <path d="M5137 3302 c-13 -14 -17 -37 -17 -91 l0 -72 48 3 c53 3 64 21 15 26 -43 4 -45 32 -3 32 20 0 30 5 30 15 0 10 -10 15 -31 15 -27 0 -30 3 -27 27 2 22 9 29 33 33 39 7 39 24 -1 28 -20 2 -36 -3 -47 -16z"/> <path d="M5401 3306 c-8 -9 -11 -43 -9 -93 3 -78 18 -105 28 -48 3 20 12 31 28 35 30 7 30 23 0 30 -36 9 -32 54 5 58 15 2 27 9 27 18 0 19 -63 19 -79 0z"/> <path d="M5653 3296 c-28 -29 -29 -56 -3 -63 11 -3 20 -9 20 -14 0 -5 11 -14 25 -19 38 -14 30 -30 -16 -30 -61 0 -45 -24 19 -28 l52 -3 0 34 c0 38 -13 53 -50 59 -16 2 -26 10 -28 24 -4 27 28 41 44 20 14 -19 34 -21 34 -3 0 17 -36 47 -58 47 -9 0 -27 -11 -39 -24z"/> <path d="M5933 3291 c-27 -24 -33 -36 -33 -70 0 -62 22 -81 92 -81 43 0 58 4 58 14 0 7 7 19 15 26 26 22 18 64 -20 103 -43 44 -69 46 -112 8z m92 -28 c13 -16 25 -35 25 -44 0 -29 -35 -51 -77 -47 -35 3 -38 6 -41 37 -3 24 3 40 19 57 29 31 44 30 74 -3z"/> <path d="M6125 3310 c-3 -6 2 -13 12 -17 28 -10 33 -24 32 -78 -1 -72 -1 -75 16 -75 12 0 15 14 15 69 0 48 4 72 15 81 8 7 12 16 9 21 -7 12 -91 11 -99 -1z"/> <path d="M6297 3314 c-10 -10 -9 -172 1 -178 12 -7 73 8 75 19 1 6 -10 11 -25 13 -16 2 -28 9 -28 17 0 7 12 16 28 20 l27 7 -28 14 c-35 19 -34 55 1 64 13 3 24 10 25 15 2 12 -65 19 -76 9z"/> <path d="M6452 3308 c-7 -7 -12 -43 -12 -90 0 -63 3 -78 15 -78 10 0 15 10 15 30 0 17 4 30 8 30 5 0 18 -13 30 -30 24 -31 52 -40 52 -16 0 8 -7 16 -15 20 -8 3 -15 12 -15 19 0 8 7 20 15 27 19 16 20 70 1 70 -8 0 -16 7 -20 15 -7 18 -57 20 -74 3z m72 -34 c13 -33 6 -44 -24 -44 -25 0 -30 4 -30 23 0 13 3 27 7 30 12 13 41 7 47 -9z"/> <path d="M6812 3308 c-18 -18 -16 -168 2 -168 9 0 16 12 18 28 2 20 9 28 28 30 14 2 33 11 43 19 21 19 23 73 3 73 -8 0 -16 7 -20 15 -7 18 -57 20 -74 3z m68 -37 c16 -32 12 -41 -20 -41 -25 0 -30 4 -30 23 0 41 31 52 50 18z"/> <path d="M3716 3299 c-3 -8 -7 -39 -8 -69 -3 -51 -5 -55 -28 -55 -24 0 -25 3 -28 63 -2 47 -7 62 -18 62 -12 0 -14 -14 -12 -77 l3 -78 55 0 55 0 3 74 c3 69 -10 115 -22 80z"/> <path d="M4496 3303 c-3 -3 -6 -42 -6 -85 0 -63 3 -78 15 -78 12 0 15 15 15 79 0 74 -7 100 -24 84z"/> <path d="M5816 3303 c-3 -3 -6 -42 -6 -85 0 -63 3 -78 15 -78 12 0 15 15 15 79 0 74 -7 100 -24 84z"/> <path d="M3253 3284 c-3 -8 -1 -26 5 -39 6 -13 8 -40 5 -59 -4 -24 -2 -36 6 -36 6 0 11 14 11 30 0 19 5 30 14 30 25 0 29 21 10 56 -20 36 -41 44 -51 18z"/> <path d="M3357 3294 c-4 -4 -7 -21 -7 -37 0 -17 -7 -38 -16 -48 -15 -17 -14 -20 6 -49 31 -44 44 -26 41 57 -2 66 -10 91 -24 77z"/> <path d="M3800 3220 l0 -80 40 0 c44 0 58 26 18 32 -21 3 -23 9 -26 66 -2 46 -7 62 -17 62 -12 0 -15 -17 -15 -80z"/> <path d="M5547 3293 c-4 -3 -7 -39 -7 -80 0 -58 3 -73 15 -73 12 0 15 16 15 80 0 73 -6 91 -23 73z"/> <path d="M6657 3293 c-4 -3 -7 -19 -7 -34 0 -19 6 -28 22 -33 18 -4 20 -8 11 -17 -9 -9 -16 -9 -28 1 -19 15 -30 6 -39 -32 -9 -37 10 -45 41 -17 l25 24 18 -22 c10 -13 23 -23 29 -23 17 0 13 60 -4 66 -9 4 -15 19 -15 40 0 23 -6 37 -19 44 -23 12 -26 12 -34 3z"/> <path d="M6980 3220 c0 -64 3 -80 15 -80 12 0 15 16 15 80 0 64 -3 80 -15 80 -12 0 -15 -16 -15 -80z"/> <path d="M7107 3293 c-14 -14 -6 -53 13 -63 11 -6 20 -15 20 -20 0 -17 -38 -11 -44 7 -9 22 -22 6 -29 -34 -8 -41 8 -51 38 -23 l23 22 21 -21 c12 -12 26 -21 31 -21 16 0 12 60 -5 66 -9 4 -15 19 -15 38 0 43 -31 72 -53 49z"/> </g> </svg> 